<svg xmlns="http://www.w3.org/2000/svg" viewBox="0 0 24 24">
    <g fill="none" fill-rule="evenodd">
        <path d="M19.5 10c-.5 0-1 .2-1.4.6l-5.1 5.1c-.8.8-2 .8-2.8 0l-2.1-2.1c-.8-.8-.8-2 0-2.8l2.1-2.1c.4-.4.9-.6 1.4-.6s1 .2 1.4.6l5.1 5.1c.8.8.8 2 0 2.8l-5.1 5.1c-.4.4-.9.6-1.4.6z" fill="#ffc107"/>
        <path d="M17 3c-1.1 0-2 .9-2 2 0 .7.4 1.3 1 1.7l-1.3 1.3c-.4-.2-.7-.5-1-.8-.6-.6-1-1.4-.9-2.2.1-.7.5-1.3 1-1.7 1.1 0 2 .9 2 2 0 1.1-.9 2-2 2zm-2 10c0 1.1.9 2 2 2s2-.9 2-2-.9-2-2-2-2 .9-2 2z" fill="#ffc107"/>
        <path d="M12.2 2C6.5 2 2 6.5 2 12.2c0 5.4 4.1 9.9 9.3 10.6.2.0 .4 0 .6-.1l2.7-1c.3-.2.5-.4.7-.7.4-.6.5-1.3.2-2 0-.7-.4-1.3-1-1.7-.3 0-.5.1-.8.2l-3.1 1.9c-.5.3-1 .5-1.5.5-.8 0-1.5-.7-1.5-1.5 0-.5.2-.9.5-1.2l3.1-1.9c.3-.2.5-.3.8-.3.6 0 1 .5 1 1.1 0 .4-.1.7-.3 1l-2.7 1c-.2.1-.4.1-.6.1-4.3-.6-7.8-4.5-7.8-9 0-5 4-9 9-9s9 4 9 9c0 1.7-.6 3.2-1.7 4.4l2 3.1c.2.3.3.7.3 1.1 0 .8-.7 1.5-1.5 1.5-.5 0-1-.2-1.4-.5l-2.1-3.1c.8-.6 1.4-1.5 1.7-2.5.3-1 .4-2.1.3-3.2z" fill="#212529"/>
    </g>
</svg>